<?xml version="1.0"?>
<svg xmlns="http://www.w3.org/2000/svg" xmlns:xlink="http://www.w3.org/1999/xlink" version="1.1" width="320px" height="320px" viewBox="0 0 320 320"><rect x="0" y="0" width="320" height="320" fill="#ffffff" fill-opacity="1"/><path fill="#000000" fill-opacity="1" d="M15,15L85,15L85,25L15,25ZM95,15L105,15L105,25L95,25ZM125,15L155,15L155,25L125,25ZM165,15L195,15L195,25L165,25ZM215,15L225,15L225,25L215,25ZM235,15L305,15L305,25L235,25ZM15,25L25,25L25,35L15,35ZM75,25L85,25L85,35L75,35ZM105,25L125,25L125,35L105,35ZM185,25L195,25L195,35L185,35ZM205,25L215,25L215,35L205,35ZM235,25L245,25L245,35L235,35ZM295,25L305,25L305,35L295,35ZM15,35L25,35L25,45L15,45ZM35,35L65,35L65,45L35,45ZM75,35L85,35L85,45L75,45ZM115,35L125,35L125,45L115,45ZM135,35L165,35L165,45L135,45ZM185,35L205,35L205,45L185,45ZM215,35L225,35L225,45L215,45ZM235,35L245,35L245,45L235,45ZM255,35L285,35L285,45L255,45ZM295,35L305,35L305,45L295,45ZM15,45L25,45L25,55L15,55ZM35,45L65,45L65,55L35,55ZM75,45L85,45L85,55L75,55ZM135,45L145,45L145,55L135,55ZM195,45L205,45L205,55L195,55ZM235,45L245,45L245,55L235,55ZM255,45L285,45L285,55L255,55ZM295,45L305,45L305,55L295,55ZM15,55L25,55L25,65L15,65ZM35,55L65,55L65,65L35,65ZM75,55L85,55L85,65L75,65ZM105,55L115,55L115,65L105,65ZM125,55L135,55L135,65L125,65ZM155,55L165,55L165,65L155,65ZM185,55L205,55L205,65L185,65ZM235,55L245,55L245,65L235,65ZM255,55L285,55L285,65L255,65ZM295,55L305,55L305,65L295,65ZM15,65L25,65L25,75L15,75ZM75,65L85,65L85,75L75,75ZM115,65L125,65L125,75L115,75ZM135,65L185,65L185,75L135,75ZM195,65L205,65L205,75L195,75ZM235,65L245,65L245,75L235,75ZM295,65L305,65L305,75L295,75ZM15,75L85,75L85,85L15,85ZM95,75L105,75L105,85L95,85ZM115,75L125,75L125,85L115,85ZM135,75L145,75L145,85L135,85ZM155,75L165,75L165,85L155,85ZM175,75L185,75L185,85L175,85ZM195,75L205,75L205,85L195,85ZM215,75L225,75L225,85L215,85ZM235,75L305,75L305,85L235,85ZM95,85L105,85L105,95L95,95ZM115,85L135,85L135,95L115,95ZM155,85L185,85L185,95L155,95ZM195,85L205,85L205,95L195,95ZM15,95L35,95L35,105L15,105ZM45,95L65,95L65,105L45,105ZM75,95L85,95L85,105L75,105ZM105,95L135,95L135,105L105,105ZM145,95L155,95L155,105L145,105ZM165,95L175,95L175,105L165,105ZM195,95L225,95L225,105L195,105ZM235,95L245,95L245,105L235,105ZM295,95L305,95L305,105L295,105ZM15,105L25,105L25,115L15,115ZM35,105L55,105L55,115L35,115ZM85,105L115,105L115,115L85,115ZM135,105L145,105L145,115L135,115ZM155,105L185,105L185,115L155,115ZM195,105L205,105L205,115L195,115ZM235,105L245,105L245,115L235,115ZM255,105L305,105L305,115L255,115ZM55,115L95,115L95,125L55,125ZM115,115L135,115L135,125L115,125ZM145,115L155,115L155,125L145,125ZM165,115L175,115L175,125L165,125ZM205,115L225,115L225,125L205,125ZM245,115L255,115L255,125L245,125ZM285,115L305,115L305,125L285,125ZM15,125L25,125L25,135L15,135ZM35,125L75,125L75,135L35,135ZM95,125L155,125L155,135L95,135ZM165,125L175,125L175,135L165,135ZM195,125L235,125L235,135L195,135ZM245,125L265,125L265,135L245,135ZM15,135L45,135L45,145L15,145ZM55,135L65,135L65,145L55,145ZM75,135L85,135L85,145L75,145ZM95,135L115,135L115,145L95,145ZM125,135L145,135L145,145L125,145ZM165,135L175,135L175,145L165,145ZM185,135L195,135L195,145L185,145ZM205,135L225,135L225,145L205,145ZM245,135L265,135L265,145L245,145ZM295,135L305,135L305,145L295,145ZM15,145L25,145L25,155L15,155ZM35,145L45,145L45,155L35,155ZM85,145L105,145L105,155L85,155ZM145,145L155,145L155,155L145,155ZM205,145L225,145L225,155L205,155ZM275,145L285,145L285,155L275,155ZM25,155L85,155L85,165L25,165ZM115,155L145,155L145,165L115,165ZM155,155L195,155L195,165L155,165ZM225,155L255,155L255,165L225,165ZM265,155L285,155L285,165L265,165ZM295,155L305,155L305,165L295,165ZM15,165L35,165L35,175L15,175ZM85,165L115,165L115,175L85,175ZM125,165L135,165L135,175L125,175ZM145,165L175,165L175,175L145,175ZM195,165L215,165L215,175L195,175ZM255,165L265,165L265,175L255,175ZM285,165L305,165L305,175L285,175ZM15,175L25,175L25,185L15,185ZM35,175L45,175L45,185L35,185ZM75,175L95,175L95,185L75,185ZM115,175L125,175L125,185L115,185ZM135,175L155,175L155,185L135,185ZM165,175L175,175L175,185L165,185ZM185,175L205,175L205,185L185,185ZM215,175L235,175L235,185L215,185ZM245,175L275,175L275,185L245,185ZM15,185L25,185L25,195L15,195ZM55,185L75,185L75,195L55,195ZM105,185L145,185L145,195L105,195ZM175,185L195,185L195,195L175,195ZM215,185L225,185L225,195L215,195ZM235,185L245,185L245,195L235,195ZM255,185L275,185L275,195L255,195ZM295,185L305,185L305,195L295,195ZM15,195L95,195L95,205L15,205ZM115,195L145,195L145,205L115,205ZM155,195L165,195L165,205L155,205ZM175,195L185,195L185,205L175,205ZM205,195L215,195L215,205L205,205ZM235,195L245,195L245,205L235,205ZM265,195L275,195L275,205L265,205ZM15,205L55,205L55,215L15,215ZM65,205L75,205L75,215L65,215ZM85,205L95,205L95,215L85,215ZM135,205L165,205L165,215L135,215ZM175,205L205,205L205,215L175,215ZM225,205L245,205L245,215L225,215ZM255,205L265,205L265,215L255,215ZM275,205L285,205L285,215L275,215ZM295,205L305,205L305,215L295,215ZM15,215L35,215L35,225L15,225ZM45,215L55,215L55,225L45,225ZM65,215L95,215L95,225L65,225ZM105,215L125,215L125,225L105,225ZM145,215L155,215L155,225L145,225ZM165,215L195,215L195,225L165,225ZM205,215L265,215L265,225L205,225ZM285,215L305,215L305,225L285,225ZM95,225L125,225L125,235L95,235ZM155,225L165,225L165,235L155,235ZM175,225L185,225L185,235L175,235ZM195,225L225,225L225,235L195,235ZM255,225L285,225L285,235L255,235ZM295,225L305,225L305,235L295,235ZM15,235L85,235L85,245L15,245ZM115,235L135,235L135,245L115,245ZM145,235L175,235L175,245L145,245ZM215,235L225,235L225,245L215,245ZM235,235L245,235L245,245L235,245ZM255,235L275,235L275,245L255,245ZM15,245L25,245L25,255L15,255ZM75,245L85,245L85,255L75,255ZM135,245L145,245L145,255L135,255ZM155,245L205,245L205,255L155,255ZM215,245L225,245L225,255L215,255ZM255,245L275,245L275,255L255,255ZM15,255L25,255L25,265L15,265ZM35,255L65,255L65,265L35,265ZM75,255L85,255L85,265L75,265ZM95,255L145,255L145,265L95,265ZM155,255L195,255L195,265L155,265ZM205,255L295,255L295,265L205,265ZM15,265L25,265L25,275L15,275ZM35,265L65,265L65,275L35,275ZM75,265L85,265L85,275L75,275ZM95,265L105,265L105,275L95,275ZM115,265L165,265L165,275L115,275ZM175,265L185,265L185,275L175,275ZM205,265L215,265L215,275L205,275ZM255,265L295,265L295,275L255,275ZM15,275L25,275L25,285L15,285ZM35,275L65,275L65,285L35,285ZM75,275L85,275L85,285L75,285ZM105,275L115,275L115,285L105,285ZM185,275L205,275L205,285L185,285ZM225,275L245,275L245,285L225,285ZM255,275L265,275L265,285L255,285ZM275,275L305,275L305,285L275,285ZM15,285L25,285L25,295L15,295ZM75,285L85,285L85,295L75,295ZM95,285L115,285L115,295L95,295ZM125,285L145,285L145,295L125,295ZM165,285L175,285L175,295L165,295ZM195,285L205,285L205,295L195,295ZM225,285L245,285L245,295L225,295ZM285,285L295,285L295,295L285,295ZM15,295L85,295L85,305L15,305ZM95,295L105,295L105,305L95,305ZM115,295L145,295L145,305L115,305ZM155,295L175,295L175,305L155,305ZM185,295L205,295L205,305L185,305ZM215,295L225,295L225,305L215,305ZM235,295L265,295L265,305L235,305Z"/></svg>
