<?xml version="1.0"?>
<svg xmlns="http://www.w3.org/2000/svg" xmlns:xlink="http://www.w3.org/1999/xlink" version="1.1" width="320px" height="320px" viewBox="0 0 320 320"><rect x="0" y="0" width="320" height="320" fill="#ffffff" fill-opacity="1"/><path fill="#000000" fill-opacity="1" d="M11,11L74,11L74,20L11,20ZM101,11L110,11L110,20L101,20ZM119,11L128,11L128,20L119,20ZM146,11L155,11L155,20L146,20ZM164,11L182,11L182,20L164,20ZM200,11L218,11L218,20L200,20ZM245,11L308,11L308,20L245,20ZM11,20L20,20L20,29L11,29ZM65,20L74,20L74,29L65,29ZM83,20L92,20L92,29L83,29ZM101,20L110,20L110,29L101,29ZM128,20L137,20L137,29L128,29ZM146,20L155,20L155,29L146,29ZM164,20L173,20L173,29L164,29ZM209,20L218,20L218,29L209,29ZM245,20L254,20L254,29L245,29ZM299,20L308,20L308,29L299,29ZM11,29L20,29L20,38L11,38ZM29,29L56,29L56,38L29,38ZM65,29L74,29L74,38L65,38ZM119,29L128,29L128,38L119,38ZM137,29L146,29L146,38L137,38ZM173,29L191,29L191,38L173,38ZM200,29L209,29L209,38L200,38ZM218,29L227,29L227,38L218,38ZM245,29L254,29L254,38L245,38ZM263,29L290,29L290,38L263,38ZM299,29L308,29L308,38L299,38ZM11,38L20,38L20,47L11,47ZM29,38L56,38L56,47L29,47ZM65,38L74,38L74,47L65,47ZM83,38L110,38L110,47L83,47ZM119,38L137,38L137,47L119,47ZM146,38L182,38L182,47L146,47ZM200,38L209,38L209,47L200,47ZM227,38L236,38L236,47L227,47ZM245,38L254,38L254,47L245,47ZM263,38L290,38L290,47L263,47ZM299,38L308,38L308,47L299,47ZM11,47L20,47L20,56L11,56ZM29,47L56,47L56,56L29,56ZM65,47L74,47L74,56L65,56ZM92,47L101,47L101,56L92,56ZM146,47L155,47L155,56L146,56ZM164,47L182,47L182,56L164,56ZM191,47L227,47L227,56L191,56ZM245,47L254,47L254,56L245,56ZM263,47L290,47L290,56L263,56ZM299,47L308,47L308,56L299,56ZM11,56L20,56L20,65L11,65ZM65,56L74,56L74,65L65,65ZM83,56L101,56L101,65L83,65ZM110,56L137,56L137,65L110,65ZM173,56L182,56L182,65L173,65ZM191,56L200,56L200,65L191,65ZM209,56L236,56L236,65L209,65ZM245,56L254,56L254,65L245,65ZM299,56L308,56L308,65L299,65ZM11,65L74,65L74,74L11,74ZM83,65L92,65L92,74L83,74ZM101,65L110,65L110,74L101,74ZM119,65L128,65L128,74L119,74ZM137,65L146,65L146,74L137,74ZM155,65L164,65L164,74L155,74ZM173,65L182,65L182,74L173,74ZM191,65L200,65L200,74L191,74ZM209,65L218,65L218,74L209,74ZM227,65L236,65L236,74L227,74ZM245,65L308,65L308,74L245,74ZM92,74L119,74L119,83L92,83ZM137,74L146,74L146,83L137,83ZM155,74L164,74L164,83L155,83ZM173,74L200,74L200,83L173,83ZM218,74L227,74L227,83L218,83ZM11,83L56,83L56,92L11,92ZM65,83L101,83L101,92L65,92ZM110,83L119,83L119,92L110,92ZM146,83L155,83L155,92L146,92ZM173,83L182,83L182,92L173,92ZM191,83L218,83L218,92L191,92ZM227,83L245,83L245,92L227,92ZM254,83L263,83L263,92L254,92ZM272,83L281,83L281,92L272,92ZM290,83L299,83L299,92L290,92ZM38,92L65,92L65,101L38,101ZM101,92L110,92L110,101L101,101ZM119,92L128,92L128,101L119,101ZM155,92L191,92L191,101L155,101ZM200,92L209,92L209,101L200,101ZM218,92L227,92L227,101L218,101ZM254,92L308,92L308,101L254,101ZM20,101L29,101L29,110L20,110ZM38,101L92,101L92,110L38,110ZM101,101L110,101L110,110L101,110ZM128,101L137,101L137,110L128,110ZM173,101L182,101L182,110L173,110ZM191,101L200,101L200,110L191,110ZM218,101L245,101L245,110L218,110ZM254,101L272,101L272,110L254,110ZM20,110L29,110L29,119L20,119ZM38,110L56,110L56,119L38,119ZM74,110L92,110L92,119L74,119ZM119,110L128,110L128,119L119,119ZM137,110L146,110L146,119L137,119ZM155,110L164,110L164,119L155,119ZM182,110L209,110L209,119L182,119ZM218,110L227,110L227,119L218,119ZM245,110L254,110L254,119L245,119ZM299,110L308,110L308,119L299,119ZM20,119L29,119L29,128L20,128ZM47,119L83,119L83,128L47,128ZM92,119L110,119L110,128L92,128ZM119,119L137,119L137,128L119,128ZM146,119L182,119L182,128L146,128ZM191,119L209,119L209,128L191,128ZM236,119L245,119L245,128L236,128ZM254,119L263,119L263,128L254,128ZM272,119L281,119L281,128L272,128ZM290,119L299,119L299,128L290,128ZM20,128L29,128L29,137L20,137ZM47,128L56,128L56,137L47,137ZM83,128L101,128L101,137L83,137ZM146,128L155,128L155,137L146,137ZM191,128L209,128L209,137L191,137ZM227,128L236,128L236,137L227,137ZM254,128L263,128L263,137L254,137ZM272,128L299,128L299,137L272,137ZM11,137L29,137L29,146L11,146ZM47,137L56,137L56,146L47,146ZM65,137L74,137L74,146L65,146ZM83,137L92,137L92,146L83,146ZM110,137L137,137L137,146L110,146ZM164,137L182,137L182,146L164,146ZM200,137L218,137L218,146L200,146ZM227,137L245,137L245,146L227,146ZM254,137L272,137L272,146L254,146ZM299,137L308,137L308,146L299,146ZM20,146L29,146L29,155L20,155ZM38,146L47,146L47,155L38,155ZM74,146L83,146L83,155L74,155ZM92,146L119,146L119,155L92,155ZM137,146L146,146L146,155L137,155ZM155,146L164,146L164,155L155,155ZM173,146L209,146L209,155L173,155ZM245,146L263,146L263,155L245,155ZM272,146L290,146L290,155L272,155ZM299,146L308,146L308,155L299,155ZM29,155L38,155L38,164L29,164ZM65,155L74,155L74,164L65,164ZM92,155L101,155L101,164L92,164ZM110,155L119,155L119,164L110,164ZM137,155L164,155L164,164L137,164ZM173,155L182,155L182,164L173,164ZM227,155L245,155L245,164L227,164ZM254,155L263,155L263,164L254,164ZM272,155L299,155L299,164L272,164ZM20,164L29,164L29,173L20,173ZM47,164L65,164L65,173L47,173ZM119,164L128,164L128,173L119,173ZM137,164L146,164L146,173L137,173ZM155,164L164,164L164,173L155,173ZM173,164L218,164L218,173L173,173ZM227,164L245,164L245,173L227,173ZM263,164L290,164L290,173L263,173ZM20,173L38,173L38,182L20,182ZM47,173L56,173L56,182L47,182ZM65,173L83,173L83,182L65,182ZM101,173L110,173L110,182L101,182ZM128,173L137,173L137,182L128,182ZM146,173L155,173L155,182L146,182ZM164,173L182,173L182,182L164,182ZM209,173L218,173L218,182L209,182ZM227,173L245,173L245,182L227,182ZM263,173L281,173L281,182L263,182ZM290,173L299,173L299,182L290,182ZM29,182L56,182L56,191L29,191ZM74,182L110,182L110,191L74,191ZM119,182L128,182L128,191L119,191ZM155,182L164,182L164,191L155,191ZM173,182L182,182L182,191L173,191ZM191,182L200,182L200,191L191,191ZM218,182L236,182L236,191L218,191ZM245,182L254,182L254,191L245,191ZM272,182L299,182L299,191L272,191ZM29,191L38,191L38,200L29,200ZM47,191L74,191L74,200L47,200ZM92,191L101,191L101,200L92,200ZM119,191L137,191L137,200L119,200ZM146,191L182,191L182,200L146,200ZM209,191L218,191L218,200L209,200ZM227,191L263,191L263,200L227,200ZM281,191L299,191L299,200L281,200ZM11,200L47,200L47,209L11,209ZM56,200L65,200L65,209L56,209ZM74,200L83,200L83,209L74,209ZM101,200L110,200L110,209L101,209ZM146,200L155,200L155,209L146,209ZM173,200L182,200L182,209L173,209ZM200,200L218,200L218,209L200,209ZM236,200L263,200L263,209L236,209ZM281,200L308,200L308,209L281,209ZM11,209L20,209L20,218L11,218ZM65,209L74,209L74,218L65,218ZM110,209L128,209L128,218L110,218ZM146,209L155,209L155,218L146,218ZM209,209L227,209L227,218L209,218ZM236,209L245,209L245,218L236,218ZM254,209L281,209L281,218L254,218ZM290,209L308,209L308,218L290,218ZM11,218L20,218L20,227L11,227ZM47,218L65,218L65,227L47,227ZM101,218L119,218L119,227L101,227ZM155,218L164,218L164,227L155,227ZM173,218L191,218L191,227L173,227ZM218,218L227,218L227,227L218,227ZM236,218L263,218L263,227L236,227ZM290,218L308,218L308,227L290,227ZM11,227L20,227L20,236L11,236ZM29,227L38,227L38,236L29,236ZM65,227L74,227L74,236L65,236ZM92,227L119,227L119,236L92,236ZM146,227L155,227L155,236L146,236ZM173,227L182,227L182,236L173,236ZM191,227L218,227L218,236L191,236ZM227,227L272,227L272,236L227,236ZM83,236L92,236L92,245L83,245ZM119,236L137,236L137,245L119,245ZM191,236L209,236L209,245L191,245ZM227,236L236,236L236,245L227,245ZM263,236L272,236L272,245L263,245ZM281,236L290,236L290,245L281,245ZM11,245L74,245L74,254L11,254ZM83,245L101,245L101,254L83,254ZM128,245L173,245L173,254L128,254ZM209,245L218,245L218,254L209,254ZM227,245L236,245L236,254L227,254ZM245,245L254,245L254,254L245,254ZM263,245L272,245L272,254L263,254ZM290,245L299,245L299,254L290,254ZM11,254L20,254L20,263L11,263ZM65,254L74,254L74,263L65,263ZM101,254L110,254L110,263L101,263ZM119,254L137,254L137,263L119,263ZM155,254L200,254L200,263L155,263ZM227,254L236,254L236,263L227,263ZM263,254L272,254L272,263L263,263ZM281,254L290,254L290,263L281,263ZM299,254L308,254L308,263L299,263ZM11,263L20,263L20,272L11,272ZM29,263L56,263L56,272L29,272ZM65,263L74,263L74,272L65,272ZM83,263L92,263L92,272L83,272ZM101,263L110,263L110,272L101,272ZM119,263L128,263L128,272L119,272ZM137,263L173,263L173,272L137,272ZM191,263L218,263L218,272L191,272ZM227,263L272,263L272,272L227,272ZM281,263L290,263L290,272L281,272ZM299,263L308,263L308,272L299,272ZM11,272L20,272L20,281L11,281ZM29,272L56,272L56,281L29,281ZM65,272L74,272L74,281L65,281ZM83,272L101,272L101,281L83,281ZM146,272L155,272L155,281L146,281ZM173,272L209,272L209,281L173,281ZM254,272L272,272L272,281L254,281ZM281,272L299,272L299,281L281,281ZM11,281L20,281L20,290L11,290ZM29,281L56,281L56,290L29,290ZM65,281L74,281L74,290L65,290ZM83,281L101,281L101,290L83,290ZM110,281L128,281L128,290L110,290ZM146,281L155,281L155,290L146,290ZM164,281L173,281L173,290L164,290ZM209,281L218,281L218,290L209,290ZM227,281L236,281L236,290L227,290ZM245,281L254,281L254,290L245,290ZM272,281L281,281L281,290L272,290ZM11,290L20,290L20,299L11,299ZM65,290L74,290L74,299L65,299ZM83,290L101,290L101,299L83,299ZM110,290L119,290L119,299L110,299ZM137,290L146,290L146,299L137,299ZM155,290L164,290L164,299L155,299ZM182,290L209,290L209,299L182,299ZM218,290L245,290L245,299L218,299ZM263,290L308,290L308,299L263,299ZM11,299L74,299L74,308L11,308ZM83,299L101,299L101,308L83,308ZM110,299L119,299L119,308L110,308ZM146,299L155,299L155,308L146,308ZM191,299L236,299L236,308L191,308ZM245,299L263,299L263,308L245,308ZM281,299L299,299L299,308L281,308Z"/></svg>
