<?xml version="1.0"?>
<svg xmlns="http://www.w3.org/2000/svg" xmlns:xlink="http://www.w3.org/1999/xlink" version="1.1" width="320px" height="320px" viewBox="0 0 320 320"><rect x="0" y="0" width="320" height="320" fill="#ffffff" fill-opacity="1"/><path fill="#000000" fill-opacity="1" d="M11,11L74,11L74,20L11,20ZM83,11L92,11L92,20L83,20ZM110,11L128,11L128,20L110,20ZM137,11L218,11L218,20L137,20ZM245,11L308,11L308,20L245,20ZM11,20L20,20L20,29L11,29ZM65,20L74,20L74,29L65,29ZM92,20L110,20L110,29L92,29ZM164,20L173,20L173,29L164,29ZM182,20L191,20L191,29L182,29ZM200,20L236,20L236,29L200,29ZM245,20L254,20L254,29L245,29ZM299,20L308,20L308,29L299,29ZM11,29L20,29L20,38L11,38ZM29,29L56,29L56,38L29,38ZM65,29L74,29L74,38L65,38ZM101,29L110,29L110,38L101,38ZM119,29L128,29L128,38L119,38ZM146,29L164,29L164,38L146,38ZM173,29L182,29L182,38L173,38ZM191,29L227,29L227,38L191,38ZM245,29L254,29L254,38L245,38ZM263,29L290,29L290,38L263,38ZM299,29L308,29L308,38L299,38ZM11,38L20,38L20,47L11,47ZM29,38L56,38L56,47L29,47ZM65,38L74,38L74,47L65,47ZM119,38L128,38L128,47L119,47ZM155,38L164,38L164,47L155,47ZM245,38L254,38L254,47L245,47ZM263,38L290,38L290,47L263,47ZM299,38L308,38L308,47L299,47ZM11,47L20,47L20,56L11,56ZM29,47L56,47L56,56L29,56ZM65,47L74,47L74,56L65,56ZM92,47L101,47L101,56L92,56ZM110,47L119,47L119,56L110,56ZM137,47L146,47L146,56L137,56ZM155,47L173,47L173,56L155,56ZM191,47L236,47L236,56L191,56ZM245,47L254,47L254,56L245,56ZM263,47L290,47L290,56L263,56ZM299,47L308,47L308,56L299,56ZM11,56L20,56L20,65L11,65ZM65,56L74,56L74,65L65,65ZM101,56L110,56L110,65L101,65ZM119,56L128,56L128,65L119,65ZM146,56L164,56L164,65L146,65ZM200,56L236,56L236,65L200,65ZM245,56L254,56L254,65L245,65ZM299,56L308,56L308,65L299,65ZM11,65L74,65L74,74L11,74ZM83,65L92,65L92,74L83,74ZM101,65L110,65L110,74L101,74ZM119,65L128,65L128,74L119,74ZM137,65L146,65L146,74L137,74ZM155,65L164,65L164,74L155,74ZM173,65L182,65L182,74L173,74ZM191,65L200,65L200,74L191,74ZM209,65L218,65L218,74L209,74ZM227,65L236,65L236,74L227,74ZM245,65L308,65L308,74L245,74ZM83,74L92,74L92,83L83,83ZM101,74L119,74L119,83L101,83ZM128,74L137,74L137,83L128,83ZM146,74L164,74L164,83L146,83ZM218,74L227,74L227,83L218,83ZM11,83L29,83L29,92L11,92ZM38,83L56,83L56,92L38,92ZM65,83L74,83L74,92L65,92ZM92,83L119,83L119,92L92,92ZM128,83L137,83L137,92L128,92ZM146,83L155,83L155,92L146,92ZM164,83L191,83L191,92L164,92ZM200,83L218,83L218,92L200,92ZM245,83L254,83L254,92L245,92ZM299,83L308,83L308,92L299,92ZM20,92L29,92L29,101L20,101ZM38,92L56,92L56,101L38,101ZM83,92L101,92L101,101L83,101ZM119,92L137,92L137,101L119,101ZM146,92L155,92L155,101L146,101ZM173,92L182,92L182,101L173,101ZM191,92L200,92L200,101L191,101ZM209,92L218,92L218,101L209,101ZM245,92L254,92L254,101L245,101ZM263,92L299,92L299,101L263,101ZM20,101L38,101L38,110L20,110ZM47,101L74,101L74,110L47,110ZM101,101L119,101L119,110L101,110ZM128,101L137,101L137,110L128,110ZM173,101L182,101L182,110L173,110ZM209,101L218,101L218,110L209,110ZM227,101L254,101L254,110L227,110ZM263,101L281,101L281,110L263,110ZM299,101L308,101L308,110L299,110ZM20,110L47,110L47,119L20,119ZM56,110L65,110L65,119L56,119ZM74,110L137,110L137,119L74,119ZM146,110L155,110L155,119L146,119ZM164,110L182,110L182,119L164,119ZM191,110L209,110L209,119L191,119ZM236,110L281,110L281,119L236,119ZM299,110L308,110L308,119L299,119ZM11,119L20,119L20,128L11,128ZM29,119L38,119L38,128L29,128ZM47,119L56,119L56,128L47,128ZM65,119L101,119L101,128L65,128ZM110,119L137,119L137,128L110,128ZM146,119L155,119L155,128L146,128ZM164,119L209,119L209,128L164,128ZM218,119L272,119L272,128L218,128ZM299,119L308,119L308,128L299,128ZM20,128L38,128L38,137L20,137ZM56,128L65,128L65,137L56,137ZM74,128L83,128L83,137L74,137ZM128,128L146,128L146,137L128,137ZM173,128L200,128L200,137L173,137ZM227,128L245,128L245,137L227,137ZM272,128L290,128L290,137L272,137ZM299,128L308,128L308,137L299,137ZM20,137L29,137L29,146L20,146ZM65,137L101,137L101,146L65,146ZM110,137L137,137L137,146L110,146ZM155,137L164,137L164,146L155,146ZM182,137L191,137L191,146L182,146ZM209,137L218,137L218,146L209,146ZM227,137L236,137L236,146L227,146ZM254,137L263,137L263,146L254,146ZM290,137L308,137L308,146L290,146ZM11,146L56,146L56,155L11,155ZM74,146L92,146L92,155L74,155ZM110,146L119,146L119,155L110,155ZM146,146L155,146L155,155L146,155ZM182,146L200,146L200,155L182,155ZM209,146L236,146L236,155L209,155ZM263,146L290,146L290,155L263,155ZM11,155L20,155L20,164L11,164ZM38,155L47,155L47,164L38,164ZM65,155L74,155L74,164L65,164ZM83,155L92,155L92,164L83,164ZM137,155L155,155L155,164L137,164ZM164,155L182,155L182,164L164,164ZM191,155L209,155L209,164L191,164ZM218,155L236,155L236,164L218,164ZM245,155L263,155L263,164L245,164ZM281,155L308,155L308,164L281,164ZM20,164L29,164L29,173L20,173ZM47,164L65,164L65,173L47,173ZM110,164L146,164L146,173L110,173ZM164,164L182,164L182,173L164,173ZM209,164L245,164L245,173L209,173ZM254,164L263,164L263,173L254,173ZM281,164L290,164L290,173L281,173ZM11,173L20,173L20,182L11,182ZM29,173L56,173L56,182L29,182ZM65,173L83,173L83,182L65,182ZM92,173L101,173L101,182L92,182ZM110,173L119,173L119,182L110,182ZM146,173L155,173L155,182L146,182ZM191,173L209,173L209,182L191,182ZM227,173L236,173L236,182L227,182ZM245,173L254,173L254,182L245,182ZM299,173L308,173L308,182L299,182ZM20,182L29,182L29,191L20,191ZM47,182L65,182L65,191L47,191ZM74,182L83,182L83,191L74,191ZM92,182L101,182L101,191L92,191ZM119,182L128,182L128,191L119,191ZM137,182L164,182L164,191L137,191ZM209,182L227,182L227,191L209,191ZM254,182L263,182L263,191L254,191ZM272,182L290,182L290,191L272,191ZM299,182L308,182L308,191L299,191ZM20,191L38,191L38,200L20,200ZM47,191L56,191L56,200L47,200ZM65,191L74,191L74,200L65,200ZM92,191L110,191L110,200L92,200ZM119,191L155,191L155,200L119,200ZM164,191L200,191L200,200L164,200ZM209,191L218,191L218,200L209,200ZM254,191L272,191L272,200L254,200ZM281,191L290,191L290,200L281,200ZM11,200L29,200L29,209L11,209ZM47,200L56,200L56,209L47,209ZM83,200L110,200L110,209L83,209ZM137,200L146,200L146,209L137,209ZM155,200L164,200L164,209L155,209ZM173,200L200,200L200,209L173,209ZM209,200L236,200L236,209L209,209ZM245,200L254,200L254,209L245,209ZM263,200L272,200L272,209L263,209ZM281,200L308,200L308,209L281,209ZM11,209L20,209L20,218L11,218ZM29,209L47,209L47,218L29,218ZM56,209L74,209L74,218L56,218ZM92,209L110,209L110,218L92,218ZM119,209L128,209L128,218L119,218ZM137,209L155,209L155,218L137,218ZM191,209L200,209L200,218L191,218ZM209,209L227,209L227,218L209,218ZM236,209L272,209L272,218L236,218ZM11,218L20,218L20,227L11,227ZM47,218L65,218L65,227L47,227ZM83,218L92,218L92,227L83,227ZM137,218L155,218L155,227L137,227ZM164,218L200,218L200,227L164,227ZM209,218L218,218L218,227L209,227ZM245,218L254,218L254,227L245,227ZM263,218L281,218L281,227L263,227ZM290,218L308,218L308,227L290,227ZM11,227L29,227L29,236L11,236ZM47,227L56,227L56,236L47,236ZM65,227L83,227L83,236L65,236ZM92,227L101,227L101,236L92,236ZM128,227L173,227L173,236L128,236ZM182,227L209,227L209,236L182,236ZM218,227L281,227L281,236L218,236ZM290,227L308,227L308,236L290,236ZM83,236L101,236L101,245L83,245ZM119,236L128,236L128,245L119,245ZM155,236L164,236L164,245L155,245ZM191,236L200,236L200,245L191,245ZM209,236L236,236L236,245L209,245ZM263,236L272,236L272,245L263,245ZM281,236L308,236L308,245L281,245ZM11,245L74,245L74,254L11,254ZM92,245L101,245L101,254L92,254ZM137,245L155,245L155,254L137,254ZM164,245L173,245L173,254L164,254ZM182,245L200,245L200,254L182,254ZM227,245L236,245L236,254L227,254ZM245,245L254,245L254,254L245,254ZM263,245L272,245L272,254L263,254ZM11,254L20,254L20,263L11,263ZM65,254L74,254L74,263L65,263ZM119,254L155,254L155,263L119,263ZM182,254L191,254L191,263L182,263ZM218,254L236,254L236,263L218,263ZM263,254L272,254L272,263L263,263ZM281,254L290,254L290,263L281,263ZM11,263L20,263L20,272L11,272ZM29,263L56,263L56,272L29,272ZM65,263L74,263L74,272L65,272ZM83,263L92,263L92,272L83,272ZM110,263L128,263L128,272L110,272ZM146,263L155,263L155,272L146,272ZM173,263L182,263L182,272L173,272ZM218,263L290,263L290,272L218,272ZM11,272L20,272L20,281L11,281ZM29,272L56,272L56,281L29,281ZM65,272L74,272L74,281L65,281ZM83,272L92,272L92,281L83,281ZM110,272L119,272L119,281L110,281ZM146,272L155,272L155,281L146,281ZM164,272L173,272L173,281L164,281ZM218,272L227,272L227,281L218,281ZM245,272L299,272L299,281L245,281ZM11,281L20,281L20,290L11,290ZM29,281L56,281L56,290L29,290ZM65,281L74,281L74,290L65,290ZM92,281L101,281L101,290L92,290ZM119,281L146,281L146,290L119,290ZM155,281L164,281L164,290L155,290ZM182,281L200,281L200,290L182,290ZM227,281L263,281L263,290L227,290ZM290,281L308,281L308,290L290,290ZM11,290L20,290L20,299L11,299ZM65,290L74,290L74,299L65,299ZM83,290L92,290L92,299L83,299ZM101,290L119,290L119,299L101,299ZM128,290L137,290L137,299L128,299ZM146,290L164,290L164,299L146,299ZM173,290L182,290L182,299L173,299ZM218,290L236,290L236,299L218,299ZM245,290L290,290L290,299L245,299ZM11,299L74,299L74,308L11,308ZM83,299L92,299L92,308L83,308ZM101,299L119,299L119,308L101,308ZM128,299L137,299L137,308L128,308ZM146,299L155,299L155,308L146,308ZM182,299L209,299L209,308L182,308ZM218,299L227,299L227,308L218,308ZM236,299L272,299L272,308L236,308ZM281,299L290,299L290,308L281,308Z"/></svg>
