<?xml version="1.0"?>
<svg xmlns="http://www.w3.org/2000/svg" xmlns:xlink="http://www.w3.org/1999/xlink" version="1.1" width="320px" height="320px" viewBox="0 0 320 320"><rect x="0" y="0" width="320" height="320" fill="#ffffff" fill-opacity="1"/><path fill="#000000" fill-opacity="1" d="M15,15L85,15L85,25L15,25ZM105,15L125,15L125,25L105,25ZM135,15L145,15L145,25L135,25ZM165,15L185,15L185,25L165,25ZM235,15L305,15L305,25L235,25ZM15,25L25,25L25,35L15,35ZM75,25L85,25L85,35L75,35ZM95,25L105,25L105,35L95,35ZM125,25L135,25L135,35L125,35ZM145,25L185,25L185,35L145,35ZM195,25L215,25L215,35L195,35ZM235,25L245,25L245,35L235,35ZM295,25L305,25L305,35L295,35ZM15,35L25,35L25,45L15,45ZM35,35L65,35L65,45L35,45ZM75,35L85,35L85,45L75,45ZM95,35L145,35L145,45L95,45ZM165,35L175,35L175,45L165,45ZM185,35L225,35L225,45L185,45ZM235,35L245,35L245,45L235,45ZM255,35L285,35L285,45L255,45ZM295,35L305,35L305,45L295,45ZM15,45L25,45L25,55L15,55ZM35,45L65,45L65,55L35,55ZM75,45L85,45L85,55L75,55ZM105,45L135,45L135,55L105,55ZM145,45L175,45L175,55L145,55ZM185,45L195,45L195,55L185,55ZM205,45L215,45L215,55L205,55ZM235,45L245,45L245,55L235,55ZM255,45L285,45L285,55L255,55ZM295,45L305,45L305,55L295,55ZM15,55L25,55L25,65L15,65ZM35,55L65,55L65,65L35,65ZM75,55L85,55L85,65L75,65ZM95,55L105,55L105,65L95,65ZM125,55L135,55L135,65L125,65ZM145,55L155,55L155,65L145,65ZM165,55L185,55L185,65L165,65ZM205,55L225,55L225,65L205,65ZM235,55L245,55L245,65L235,65ZM255,55L285,55L285,65L255,65ZM295,55L305,55L305,65L295,65ZM15,65L25,65L25,75L15,75ZM75,65L85,65L85,75L75,75ZM95,65L115,65L115,75L95,75ZM125,65L135,65L135,75L125,75ZM155,65L165,65L165,75L155,75ZM185,65L225,65L225,75L185,75ZM235,65L245,65L245,75L235,75ZM295,65L305,65L305,75L295,75ZM15,75L85,75L85,85L15,85ZM95,75L105,75L105,85L95,85ZM115,75L125,75L125,85L115,85ZM135,75L145,75L145,85L135,85ZM155,75L165,75L165,85L155,85ZM175,75L185,75L185,85L175,85ZM195,75L205,75L205,85L195,85ZM215,75L225,75L225,85L215,85ZM235,75L305,75L305,85L235,85ZM95,85L115,85L115,95L95,95ZM135,85L145,85L145,95L135,95ZM205,85L215,85L215,95L205,95ZM15,95L35,95L35,105L15,105ZM45,95L55,95L55,105L45,105ZM75,95L95,95L95,105L75,105ZM115,95L135,95L135,105L115,105ZM185,95L205,95L205,105L185,105ZM215,95L225,95L225,105L215,105ZM235,95L265,95L265,105L235,105ZM275,95L295,95L295,105L275,105ZM15,105L35,105L35,115L15,115ZM45,105L75,105L75,115L45,115ZM85,105L105,105L105,115L85,115ZM115,105L125,105L125,115L115,115ZM135,105L155,105L155,115L135,115ZM165,105L175,105L175,115L165,115ZM185,105L195,105L195,115L185,115ZM205,105L215,105L215,115L205,115ZM225,105L235,105L235,115L225,115ZM245,105L255,105L255,115L245,115ZM15,115L25,115L25,125L15,125ZM35,115L45,115L45,125L35,125ZM55,115L65,115L65,125L55,125ZM75,115L85,115L85,125L75,125ZM105,115L155,115L155,125L105,125ZM185,115L195,115L195,125L185,125ZM205,115L235,115L235,125L205,125ZM265,115L275,115L275,125L265,125ZM295,115L305,115L305,125L295,125ZM65,125L75,125L75,135L65,135ZM95,125L105,125L105,135L95,135ZM125,125L165,125L165,135L125,135ZM175,125L185,125L185,135L175,135ZM235,125L245,125L245,135L235,135ZM265,125L305,125L305,135L265,135ZM15,135L45,135L45,145L15,145ZM55,135L65,135L65,145L55,145ZM75,135L95,135L95,145L75,145ZM145,135L165,135L165,145L145,145ZM175,135L185,135L185,145L175,145ZM195,135L205,135L205,145L195,145ZM225,135L235,135L235,145L225,145ZM245,135L255,135L255,145L245,145ZM265,135L275,135L275,145L265,145ZM285,135L305,135L305,145L285,145ZM35,145L45,145L45,155L35,155ZM55,145L65,145L65,155L55,155ZM95,145L105,145L105,155L95,155ZM115,145L135,145L135,155L115,155ZM155,145L175,145L175,155L155,155ZM185,145L205,145L205,155L185,155ZM225,145L245,145L245,155L225,155ZM265,145L275,145L275,155L265,155ZM285,145L305,145L305,155L285,155ZM15,155L25,155L25,165L15,165ZM35,155L105,155L105,165L35,165ZM135,155L165,155L165,165L135,165ZM175,155L185,155L185,165L175,165ZM205,155L225,155L225,165L205,165ZM235,155L245,155L245,165L235,165ZM275,155L305,155L305,165L275,165ZM25,165L35,165L35,175L25,175ZM85,165L115,165L115,175L85,175ZM135,165L145,165L145,175L135,175ZM165,165L185,165L185,175L165,175ZM215,165L255,165L255,175L215,175ZM265,165L285,165L285,175L265,175ZM15,175L25,175L25,185L15,185ZM45,175L55,175L55,185L45,185ZM75,175L85,175L85,185L75,185ZM95,175L105,175L105,185L95,185ZM115,175L125,175L125,185L115,185ZM135,175L145,175L145,185L135,185ZM185,175L195,175L195,185L185,185ZM205,175L225,175L225,185L205,185ZM255,175L265,175L265,185L255,185ZM285,175L295,175L295,185L285,185ZM25,185L55,185L55,195L25,195ZM65,185L75,185L75,195L65,195ZM95,185L115,185L115,195L95,195ZM135,185L155,185L155,195L135,195ZM165,185L175,185L175,195L165,195ZM205,185L215,185L215,195L205,195ZM225,185L235,185L235,195L225,195ZM245,185L255,185L255,195L245,195ZM275,185L295,185L295,195L275,195ZM15,195L25,195L25,205L15,205ZM55,195L115,195L115,205L55,205ZM145,195L155,195L155,205L145,205ZM175,195L195,195L195,205L175,205ZM225,195L255,195L255,205L225,205ZM295,195L305,195L305,205L295,205ZM35,205L45,205L45,215L35,215ZM85,205L95,205L95,215L85,215ZM115,205L125,205L125,215L115,215ZM135,205L155,205L155,215L135,215ZM175,205L235,205L235,215L175,215ZM245,205L255,205L255,215L245,215ZM265,205L275,205L275,215L265,215ZM15,215L25,215L25,225L15,225ZM75,215L85,215L85,225L75,225ZM125,215L135,215L135,225L125,225ZM155,215L165,215L165,225L155,225ZM175,215L185,215L185,225L175,225ZM215,215L275,215L275,225L215,225ZM295,215L305,215L305,225L295,225ZM95,225L105,225L105,235L95,235ZM125,225L135,225L135,235L125,235ZM145,225L195,225L195,235L145,235ZM215,225L225,225L225,235L215,235ZM255,225L265,225L265,235L255,235ZM285,225L295,225L295,235L285,235ZM15,235L85,235L85,245L15,245ZM95,235L105,235L105,245L95,245ZM115,235L145,235L145,245L115,245ZM165,235L195,235L195,245L165,245ZM205,235L225,235L225,245L205,245ZM235,235L245,235L245,245L235,245ZM255,235L265,235L265,245L255,245ZM285,235L295,235L295,245L285,245ZM15,245L25,245L25,255L15,255ZM75,245L85,245L85,255L75,255ZM105,245L115,245L115,255L105,255ZM125,245L155,245L155,255L125,255ZM175,245L185,245L185,255L175,255ZM205,245L225,245L225,255L205,255ZM255,245L265,245L265,255L255,255ZM275,245L305,245L305,255L275,255ZM15,255L25,255L25,265L15,265ZM35,255L65,255L65,265L35,265ZM75,255L85,255L85,265L75,265ZM115,255L125,255L125,265L115,265ZM135,255L145,255L145,265L135,265ZM155,255L165,255L165,265L155,265ZM175,255L185,255L185,265L175,265ZM195,255L265,255L265,265L195,265ZM275,255L285,255L285,265L275,265ZM15,265L25,265L25,275L15,275ZM35,265L65,265L65,275L35,275ZM75,265L85,265L85,275L75,275ZM95,265L115,265L115,275L95,275ZM125,265L145,265L145,275L125,275ZM165,265L205,265L205,275L165,275ZM215,265L255,265L255,275L215,275ZM295,265L305,265L305,275L295,275ZM15,275L25,275L25,285L15,285ZM35,275L65,275L65,285L35,285ZM75,275L85,275L85,285L75,285ZM115,275L135,275L135,285L115,285ZM145,275L165,275L165,285L145,285ZM175,275L185,275L185,285L175,285ZM205,275L215,275L215,285L205,285ZM225,275L285,275L285,285L225,285ZM295,275L305,275L305,285L295,285ZM15,285L25,285L25,295L15,295ZM75,285L85,285L85,295L75,295ZM95,285L115,285L115,295L95,295ZM135,285L155,285L155,295L135,295ZM185,285L215,285L215,295L185,295ZM245,285L285,285L285,295L245,295ZM295,285L305,285L305,295L295,295ZM15,295L85,295L85,305L15,305ZM95,295L105,295L105,305L95,305ZM115,295L125,295L125,305L115,305ZM145,295L155,295L155,305L145,305ZM185,295L205,295L205,305L185,305ZM215,295L225,295L225,305L215,305ZM235,295L245,295L245,305L235,305ZM255,295L275,295L275,305L255,305ZM285,295L295,295L295,305L285,305Z"/></svg>
