<?xml version="1.0"?>
<svg xmlns="http://www.w3.org/2000/svg" xmlns:xlink="http://www.w3.org/1999/xlink" version="1.1" width="320px" height="320px" viewBox="0 0 320 320"><rect x="0" y="0" width="320" height="320" fill="#ffffff" fill-opacity="1"/><path fill="#000000" fill-opacity="1" d="M15,15L85,15L85,25L15,25ZM105,15L115,15L115,25L105,25ZM135,15L145,15L145,25L135,25ZM195,15L205,15L205,25L195,25ZM235,15L305,15L305,25L235,25ZM15,25L25,25L25,35L15,35ZM75,25L85,25L85,35L75,35ZM95,25L105,25L105,35L95,35ZM125,25L185,25L185,35L125,35ZM205,25L225,25L225,35L205,35ZM235,25L245,25L245,35L235,35ZM295,25L305,25L305,35L295,35ZM15,35L25,35L25,45L15,45ZM35,35L65,35L65,45L35,45ZM75,35L85,35L85,45L75,45ZM95,35L145,35L145,45L95,45ZM155,35L175,35L175,45L155,45ZM185,35L225,35L225,45L185,45ZM235,35L245,35L245,45L235,45ZM255,35L285,35L285,45L255,45ZM295,35L305,35L305,45L295,45ZM15,45L25,45L25,55L15,55ZM35,45L65,45L65,55L35,55ZM75,45L85,45L85,55L75,55ZM105,45L135,45L135,55L105,55ZM165,45L175,45L175,55L165,55ZM185,45L195,45L195,55L185,55ZM205,45L215,45L215,55L205,55ZM235,45L245,45L245,55L235,55ZM255,45L285,45L285,55L255,55ZM295,45L305,45L305,55L295,55ZM15,55L25,55L25,65L15,65ZM35,55L65,55L65,65L35,65ZM75,55L85,55L85,65L75,65ZM95,55L105,55L105,65L95,65ZM145,55L155,55L155,65L145,65ZM165,55L185,55L185,65L165,65ZM195,55L225,55L225,65L195,65ZM235,55L245,55L245,65L235,65ZM255,55L285,55L285,65L255,65ZM295,55L305,55L305,65L295,65ZM15,65L25,65L25,75L15,75ZM75,65L85,65L85,75L75,75ZM95,65L115,65L115,75L95,75ZM125,65L135,65L135,75L125,75ZM195,65L225,65L225,75L195,75ZM235,65L245,65L245,75L235,75ZM295,65L305,65L305,75L295,75ZM15,75L85,75L85,85L15,85ZM95,75L105,75L105,85L95,85ZM115,75L125,75L125,85L115,85ZM135,75L145,75L145,85L135,85ZM155,75L165,75L165,85L155,85ZM175,75L185,75L185,85L175,85ZM195,75L205,75L205,85L195,85ZM215,75L225,75L225,85L215,85ZM235,75L305,75L305,85L235,85ZM95,85L115,85L115,95L95,95ZM135,85L145,85L145,95L135,95ZM155,85L165,85L165,95L155,95ZM185,85L195,85L195,95L185,95ZM205,85L215,85L215,95L205,95ZM15,95L35,95L35,105L15,105ZM45,95L55,95L55,105L45,105ZM75,95L95,95L95,105L75,105ZM115,95L125,95L125,105L115,105ZM135,95L155,95L155,105L135,105ZM195,95L205,95L205,105L195,105ZM215,95L225,95L225,105L215,105ZM235,95L265,95L265,105L235,105ZM275,95L295,95L295,105L275,105ZM15,105L25,105L25,115L15,115ZM45,105L75,105L75,115L45,115ZM85,105L105,105L105,115L85,115ZM115,105L135,105L135,115L115,115ZM145,105L235,105L235,115L145,115ZM245,105L255,105L255,115L245,115ZM25,115L35,115L35,125L25,125ZM45,115L55,115L55,125L45,125ZM75,115L125,115L125,125L75,125ZM135,115L145,115L145,125L135,125ZM155,115L165,115L165,125L155,125ZM185,115L195,115L195,125L185,125ZM205,115L235,115L235,125L205,125ZM265,115L275,115L275,125L265,125ZM295,115L305,115L305,125L295,125ZM25,125L45,125L45,135L25,135ZM145,125L165,125L165,135L145,135ZM175,125L205,125L205,135L175,135ZM235,125L245,125L245,135L235,135ZM265,125L305,125L305,135L265,135ZM15,135L35,135L35,145L15,145ZM65,135L95,135L95,145L65,145ZM135,135L145,135L145,145L135,145ZM155,135L165,135L165,145L155,145ZM175,135L185,135L185,145L175,145ZM195,135L205,135L205,145L195,145ZM215,135L235,135L235,145L215,145ZM245,135L275,135L275,145L245,145ZM285,135L305,135L305,145L285,145ZM85,145L95,145L95,155L85,155ZM115,145L135,145L135,155L115,155ZM175,145L215,145L215,155L175,155ZM225,145L245,145L245,155L225,155ZM265,145L275,145L275,155L265,155ZM285,145L305,145L305,155L285,155ZM15,155L35,155L35,165L15,165ZM45,155L55,155L55,165L45,165ZM75,155L85,155L85,165L75,165ZM125,155L135,155L135,165L125,165ZM155,155L165,155L165,165L155,165ZM215,155L225,155L225,165L215,165ZM235,155L245,155L245,165L235,165ZM275,155L305,155L305,165L275,165ZM15,165L45,165L45,175L15,175ZM55,165L75,165L75,175L55,175ZM85,165L95,165L95,175L85,175ZM105,165L115,165L115,175L105,175ZM135,165L165,165L165,175L135,175ZM175,165L195,165L195,175L175,175ZM215,165L255,165L255,175L215,175ZM265,165L285,165L285,175L265,175ZM25,175L55,175L55,185L25,185ZM65,175L85,175L85,185L65,185ZM175,175L215,175L215,185L175,185ZM255,175L265,175L265,185L255,185ZM285,175L295,175L295,185L285,185ZM35,185L45,185L45,195L35,195ZM55,185L65,185L65,195L55,195ZM85,185L155,185L155,195L85,195ZM165,185L175,185L175,195L165,195ZM225,185L235,185L235,195L225,195ZM245,185L255,185L255,195L245,195ZM275,185L305,185L305,195L275,195ZM15,195L25,195L25,205L15,205ZM45,195L95,195L95,205L45,205ZM125,195L155,195L155,205L125,205ZM175,195L195,195L195,205L175,205ZM205,195L255,195L255,205L205,205ZM285,195L295,195L295,205L285,205ZM65,205L75,205L75,215L65,215ZM85,205L95,205L95,215L85,215ZM115,205L125,205L125,215L115,215ZM135,205L155,205L155,215L135,215ZM185,205L195,205L195,215L185,215ZM205,205L235,205L235,215L205,215ZM245,205L255,205L255,215L245,215ZM265,205L275,205L275,215L265,215ZM285,205L295,205L295,215L285,215ZM15,215L25,215L25,225L15,225ZM35,215L45,215L45,225L35,225ZM75,215L115,215L115,225L75,225ZM125,215L165,215L165,225L125,225ZM185,215L195,215L195,225L185,225ZM215,215L275,215L275,225L215,225ZM295,215L305,215L305,225L295,225ZM95,225L115,225L115,235L95,235ZM125,225L135,225L135,235L125,235ZM145,225L165,225L165,235L145,235ZM175,225L205,225L205,235L175,235ZM215,225L225,225L225,235L215,235ZM255,225L265,225L265,235L255,235ZM285,225L295,225L295,235L285,235ZM15,235L85,235L85,245L15,245ZM95,235L105,235L105,245L95,245ZM125,235L145,235L145,245L125,245ZM175,235L195,235L195,245L175,245ZM205,235L225,235L225,245L205,245ZM235,235L245,235L245,245L235,245ZM255,235L265,235L265,245L255,245ZM285,235L295,235L295,245L285,245ZM15,245L25,245L25,255L15,255ZM75,245L85,245L85,255L75,255ZM105,245L155,245L155,255L105,255ZM175,245L185,245L185,255L175,255ZM195,245L205,245L205,255L195,255ZM215,245L225,245L225,255L215,255ZM255,245L265,245L265,255L255,255ZM275,245L305,245L305,255L275,255ZM15,255L25,255L25,265L15,265ZM35,255L65,255L65,265L35,265ZM75,255L85,255L85,265L75,265ZM105,255L125,255L125,265L105,265ZM145,255L165,255L165,265L145,265ZM185,255L205,255L205,265L185,265ZM215,255L265,255L265,265L215,265ZM275,255L285,255L285,265L275,265ZM15,265L25,265L25,275L15,275ZM35,265L65,265L65,275L35,275ZM75,265L85,265L85,275L75,275ZM95,265L125,265L125,275L95,275ZM165,265L195,265L195,275L165,275ZM215,265L235,265L235,275L215,275ZM245,265L255,265L255,275L245,275ZM295,265L305,265L305,275L295,275ZM15,275L25,275L25,285L15,285ZM35,275L65,275L65,285L35,285ZM75,275L85,275L85,285L75,285ZM105,275L115,275L115,285L105,285ZM125,275L135,275L135,285L125,285ZM145,275L165,275L165,285L145,285ZM175,275L185,275L185,285L175,285ZM195,275L215,275L215,285L195,285ZM235,275L285,275L285,285L235,285ZM295,275L305,275L305,285L295,285ZM15,285L25,285L25,295L15,295ZM75,285L85,285L85,295L75,295ZM95,285L115,285L115,295L95,295ZM135,285L145,285L145,295L135,295ZM165,285L195,285L195,295L165,295ZM205,285L215,285L215,295L205,295ZM245,285L285,285L285,295L245,295ZM295,285L305,285L305,295L295,295ZM15,295L85,295L85,305L15,305ZM95,295L105,295L105,305L95,305ZM155,295L165,295L165,305L155,305ZM195,295L205,295L205,305L195,305ZM215,295L225,295L225,305L215,305ZM235,295L245,295L245,305L235,305ZM255,295L275,295L275,305L255,305ZM285,295L295,295L295,305L285,305Z"/></svg>
